<svg width="247" height="246" viewBox="0 0 247 246" fill="none" xmlns="http://www.w3.org/2000/svg">
    <path
        d="M9.88033 -19.1912C9.88033 -16.6222 7.83875 -14.5396 5.32033 -14.5396C2.80191 -14.5396 0.760327 -16.6222 0.760327 -19.1912C0.760327 -21.7603 2.80191 -23.8429 5.32033 -23.8429C7.83875 -23.8429 9.88033 -21.7603 9.88033 -19.1912Z"
        fill="#ffffff" />
    <path
        d="M41.8001 -19.1912C41.8001 -16.6222 39.7585 -14.5396 37.2401 -14.5396C34.7217 -14.5396 32.6801 -16.6222 32.6801 -19.1912C32.6801 -21.7603 34.7217 -23.8429 37.2401 -23.8429C39.7585 -23.8429 41.8001 -21.7603 41.8001 -19.1912Z"
        fill="#ffffff" />
    <path
        d="M73.7199 -19.1912C73.7199 -16.6222 71.6783 -14.5396 69.1599 -14.5396C66.6415 -14.5396 64.5999 -16.6222 64.5999 -19.1912C64.5999 -21.7603 66.6415 -23.8429 69.1599 -23.8429C71.6783 -23.8429 73.7199 -21.7603 73.7199 -19.1912Z"
        fill="#ffffff" />
    <path
        d="M105.64 -19.1912C105.64 -16.6222 103.599 -14.5396 101.08 -14.5396C98.5617 -14.5396 96.5201 -16.6222 96.5201 -19.1912C96.5201 -21.7603 98.5617 -23.8429 101.08 -23.8429C103.599 -23.8429 105.64 -21.7603 105.64 -19.1912Z"
        fill="#ffffff" />
    <path
        d="M137.56 -19.1912C137.56 -16.6222 135.518 -14.5396 133 -14.5396C130.482 -14.5396 128.44 -16.6222 128.44 -19.1912C128.44 -21.7603 130.482 -23.8429 133 -23.8429C135.518 -23.8429 137.56 -21.7603 137.56 -19.1912Z"
        fill="#ffffff" />
    <path
        d="M169.48 -19.1912C169.48 -16.6222 167.439 -14.5396 164.92 -14.5396C162.402 -14.5396 160.36 -16.6222 160.36 -19.1912C160.36 -21.7603 162.402 -23.8429 164.92 -23.8429C167.439 -23.8429 169.48 -21.7603 169.48 -19.1912Z"
        fill="#ffffff" />
    <path
        d="M201.4 -19.1912C201.4 -16.6222 199.359 -14.5396 196.84 -14.5396C194.322 -14.5396 192.28 -16.6222 192.28 -19.1912C192.28 -21.7603 194.322 -23.8429 196.84 -23.8429C199.359 -23.8429 201.4 -21.7603 201.4 -19.1912Z"
        fill="#ffffff" />
    <path
        d="M233.32 -19.1912C233.32 -16.6222 231.279 -14.5396 228.76 -14.5396C226.242 -14.5396 224.2 -16.6222 224.2 -19.1912C224.2 -21.7603 226.242 -23.8429 228.76 -23.8429C231.279 -23.8429 233.32 -21.7603 233.32 -19.1912Z"
        fill="#ffffff" />
    <path
        d="M265.24 -19.1912C265.24 -16.6222 263.198 -14.5396 260.68 -14.5396C258.162 -14.5396 256.12 -16.6222 256.12 -19.1912C256.12 -21.7603 258.162 -23.8429 260.68 -23.8429C263.198 -23.8429 265.24 -21.7603 265.24 -19.1912Z"
        fill="#ffffff" />
    <path
        d="M9.88025 13.3704C9.88025 15.9394 7.83867 18.022 5.32025 18.022C2.80184 18.022 0.760254 15.9394 0.760254 13.3704C0.760254 10.8013 2.80184 8.71869 5.32025 8.71869C7.83867 8.71869 9.88025 10.8013 9.88025 13.3704Z"
        fill="#ffffff" />
    <path
        d="M41.8001 13.3704C41.8001 15.9394 39.7585 18.022 37.2401 18.022C34.7217 18.022 32.6801 15.9394 32.6801 13.3704C32.6801 10.8013 34.7217 8.71869 37.2401 8.71869C39.7585 8.71869 41.8001 10.8013 41.8001 13.3704Z"
        fill="#ffffff" />
    <path
        d="M73.7199 13.3704C73.7199 15.9394 71.6783 18.022 69.1599 18.022C66.6415 18.022 64.5999 15.9394 64.5999 13.3704C64.5999 10.8013 66.6415 8.71869 69.1599 8.71869C71.6783 8.71869 73.7199 10.8013 73.7199 13.3704Z"
        fill="#ffffff" />
    <path
        d="M105.64 13.3704C105.64 15.9394 103.599 18.022 101.08 18.022C98.5617 18.022 96.5201 15.9394 96.5201 13.3704C96.5201 10.8013 98.5617 8.71869 101.08 8.71869C103.599 8.71869 105.64 10.8013 105.64 13.3704Z"
        fill="#ffffff" />
    <path
        d="M137.56 13.3704C137.56 15.9394 135.518 18.022 133 18.022C130.482 18.022 128.44 15.9394 128.44 13.3704C128.44 10.8013 130.482 8.71869 133 8.71869C135.518 8.71869 137.56 10.8013 137.56 13.3704Z"
        fill="#ffffff" />
    <path
        d="M169.48 13.3704C169.48 15.9394 167.439 18.022 164.92 18.022C162.402 18.022 160.36 15.9394 160.36 13.3704C160.36 10.8013 162.402 8.71869 164.92 8.71869C167.439 8.71869 169.48 10.8013 169.48 13.3704Z"
        fill="#ffffff" />
    <path
        d="M201.4 13.3704C201.4 15.9394 199.359 18.022 196.84 18.022C194.322 18.022 192.28 15.9394 192.28 13.3704C192.28 10.8013 194.322 8.71869 196.84 8.71869C199.359 8.71869 201.4 10.8013 201.4 13.3704Z"
        fill="#ffffff" />
    <path
        d="M233.32 13.3704C233.32 15.9394 231.279 18.022 228.76 18.022C226.242 18.022 224.2 15.9394 224.2 13.3704C224.2 10.8013 226.242 8.71869 228.76 8.71869C231.279 8.71869 233.32 10.8013 233.32 13.3704Z"
        fill="#ffffff" />
    <path
        d="M265.24 13.3704C265.24 15.9394 263.198 18.022 260.68 18.022C258.162 18.022 256.12 15.9394 256.12 13.3704C256.12 10.8013 258.162 8.71869 260.68 8.71869C263.198 8.71869 265.24 10.8013 265.24 13.3704Z"
        fill="#ffffff" />
    <path
        d="M9.88025 45.9321C9.88025 48.5011 7.83867 50.5838 5.32025 50.5838C2.80184 50.5838 0.760254 48.5011 0.760254 45.9321C0.760254 43.3631 2.80184 41.2804 5.32025 41.2804C7.83867 41.2804 9.88025 43.3631 9.88025 45.9321Z"
        fill="#ffffff" />
    <path
        d="M41.8001 45.9321C41.8001 48.5011 39.7585 50.5838 37.2401 50.5838C34.7217 50.5838 32.6801 48.5011 32.6801 45.9321C32.6801 43.3631 34.7217 41.2804 37.2401 41.2804C39.7585 41.2804 41.8001 43.3631 41.8001 45.9321Z"
        fill="#ffffff" />
    <path
        d="M73.7199 45.9321C73.7199 48.5011 71.6783 50.5838 69.1599 50.5838C66.6415 50.5838 64.5999 48.5011 64.5999 45.9321C64.5999 43.3631 66.6415 41.2804 69.1599 41.2804C71.6783 41.2804 73.7199 43.3631 73.7199 45.9321Z"
        fill="#ffffff" />
    <path
        d="M105.64 45.9321C105.64 48.5011 103.599 50.5838 101.08 50.5838C98.5617 50.5838 96.5201 48.5011 96.5201 45.9321C96.5201 43.3631 98.5617 41.2804 101.08 41.2804C103.599 41.2804 105.64 43.3631 105.64 45.9321Z"
        fill="#ffffff" />
    <path
        d="M137.56 45.9321C137.56 48.5011 135.518 50.5838 133 50.5838C130.482 50.5838 128.44 48.5011 128.44 45.9321C128.44 43.3631 130.482 41.2804 133 41.2804C135.518 41.2804 137.56 43.3631 137.56 45.9321Z"
        fill="#ffffff" />
    <path
        d="M169.48 45.9321C169.48 48.5011 167.439 50.5838 164.92 50.5838C162.402 50.5838 160.36 48.5011 160.36 45.9321C160.36 43.3631 162.402 41.2804 164.92 41.2804C167.439 41.2804 169.48 43.3631 169.48 45.9321Z"
        fill="#ffffff" />
    <path
        d="M201.4 45.9321C201.4 48.5011 199.359 50.5838 196.84 50.5838C194.322 50.5838 192.28 48.5011 192.28 45.9321C192.28 43.3631 194.322 41.2804 196.84 41.2804C199.359 41.2804 201.4 43.3631 201.4 45.9321Z"
        fill="#ffffff" />
    <path
        d="M233.32 45.9321C233.32 48.5011 231.279 50.5838 228.76 50.5838C226.242 50.5838 224.2 48.5011 224.2 45.9321C224.2 43.3631 226.242 41.2804 228.76 41.2804C231.279 41.2804 233.32 43.3631 233.32 45.9321Z"
        fill="#ffffff" />
    <path
        d="M265.24 45.9321C265.24 48.5011 263.198 50.5838 260.68 50.5838C258.162 50.5838 256.12 48.5011 256.12 45.9321C256.12 43.3631 258.162 41.2804 260.68 41.2804C263.198 41.2804 265.24 43.3631 265.24 45.9321Z"
        fill="#ffffff" />
    <path
        d="M9.88025 78.4937C9.88025 81.0627 7.83867 83.1453 5.32025 83.1453C2.80184 83.1453 0.760254 81.0627 0.760254 78.4937C0.760254 75.9246 2.80184 73.842 5.32025 73.842C7.83867 73.842 9.88025 75.9246 9.88025 78.4937Z"
        fill="#ffffff" />
    <path
        d="M41.8001 78.4937C41.8001 81.0627 39.7585 83.1453 37.2401 83.1453C34.7217 83.1453 32.6801 81.0627 32.6801 78.4937C32.6801 75.9246 34.7217 73.842 37.2401 73.842C39.7585 73.842 41.8001 75.9246 41.8001 78.4937Z"
        fill="#ffffff" />
    <path
        d="M73.7199 78.4937C73.7199 81.0627 71.6783 83.1453 69.1599 83.1453C66.6415 83.1453 64.5999 81.0627 64.5999 78.4937C64.5999 75.9246 66.6415 73.842 69.1599 73.842C71.6783 73.842 73.7199 75.9246 73.7199 78.4937Z"
        fill="#ffffff" />
    <path
        d="M105.64 78.4937C105.64 81.0627 103.599 83.1453 101.08 83.1453C98.5617 83.1453 96.5201 81.0627 96.5201 78.4937C96.5201 75.9246 98.5617 73.842 101.08 73.842C103.599 73.842 105.64 75.9246 105.64 78.4937Z"
        fill="#ffffff" />
    <path
        d="M137.56 78.4937C137.56 81.0627 135.518 83.1453 133 83.1453C130.482 83.1453 128.44 81.0627 128.44 78.4937C128.44 75.9246 130.482 73.842 133 73.842C135.518 73.842 137.56 75.9246 137.56 78.4937Z"
        fill="#ffffff" />
    <path
        d="M169.48 78.4937C169.48 81.0627 167.439 83.1453 164.92 83.1453C162.402 83.1453 160.36 81.0627 160.36 78.4937C160.36 75.9246 162.402 73.842 164.92 73.842C167.439 73.842 169.48 75.9246 169.48 78.4937Z"
        fill="#ffffff" />
    <path
        d="M201.4 78.4937C201.4 81.0627 199.359 83.1453 196.84 83.1453C194.322 83.1453 192.28 81.0627 192.28 78.4937C192.28 75.9246 194.322 73.842 196.84 73.842C199.359 73.842 201.4 75.9246 201.4 78.4937Z"
        fill="#ffffff" />
    <path
        d="M233.32 78.4937C233.32 81.0627 231.279 83.1453 228.76 83.1453C226.242 83.1453 224.2 81.0627 224.2 78.4937C224.2 75.9246 226.242 73.842 228.76 73.842C231.279 73.842 233.32 75.9246 233.32 78.4937Z"
        fill="#ffffff" />
    <path
        d="M265.24 78.4937C265.24 81.0627 263.198 83.1453 260.68 83.1453C258.162 83.1453 256.12 81.0627 256.12 78.4937C256.12 75.9246 258.162 73.842 260.68 73.842C263.198 73.842 265.24 75.9246 265.24 78.4937Z"
        fill="#ffffff" />
    <path
        d="M9.88025 111.055C9.88025 113.624 7.83867 115.707 5.32025 115.707C2.80184 115.707 0.760254 113.624 0.760254 111.055C0.760254 108.486 2.80184 106.404 5.32025 106.404C7.83867 106.404 9.88025 108.486 9.88025 111.055Z"
        fill="#ffffff" />
    <path
        d="M41.8001 111.055C41.8001 113.624 39.7585 115.707 37.2401 115.707C34.7217 115.707 32.6801 113.624 32.6801 111.055C32.6801 108.486 34.7217 106.404 37.2401 106.404C39.7585 106.404 41.8001 108.486 41.8001 111.055Z"
        fill="#ffffff" />
    <path
        d="M73.7199 111.055C73.7199 113.624 71.6783 115.707 69.1599 115.707C66.6415 115.707 64.5999 113.624 64.5999 111.055C64.5999 108.486 66.6415 106.404 69.1599 106.404C71.6783 106.404 73.7199 108.486 73.7199 111.055Z"
        fill="#ffffff" />
    <path
        d="M105.64 111.055C105.64 113.624 103.599 115.707 101.08 115.707C98.5617 115.707 96.5201 113.624 96.5201 111.055C96.5201 108.486 98.5617 106.404 101.08 106.404C103.599 106.404 105.64 108.486 105.64 111.055Z"
        fill="#ffffff" />
    <path
        d="M137.56 111.055C137.56 113.624 135.518 115.707 133 115.707C130.482 115.707 128.44 113.624 128.44 111.055C128.44 108.486 130.482 106.404 133 106.404C135.518 106.404 137.56 108.486 137.56 111.055Z"
        fill="#ffffff" />
    <path
        d="M169.48 111.055C169.48 113.624 167.439 115.707 164.92 115.707C162.402 115.707 160.36 113.624 160.36 111.055C160.36 108.486 162.402 106.404 164.92 106.404C167.439 106.404 169.48 108.486 169.48 111.055Z"
        fill="#ffffff" />
    <path
        d="M201.4 111.055C201.4 113.624 199.359 115.707 196.84 115.707C194.322 115.707 192.28 113.624 192.28 111.055C192.28 108.486 194.322 106.404 196.84 106.404C199.359 106.404 201.4 108.486 201.4 111.055Z"
        fill="#ffffff" />
    <path
        d="M233.32 111.055C233.32 113.624 231.279 115.707 228.76 115.707C226.242 115.707 224.2 113.624 224.2 111.055C224.2 108.486 226.242 106.404 228.76 106.404C231.279 106.404 233.32 108.486 233.32 111.055Z"
        fill="#ffffff" />
    <path
        d="M265.24 111.055C265.24 113.624 263.198 115.707 260.68 115.707C258.162 115.707 256.12 113.624 256.12 111.055C256.12 108.486 258.162 106.404 260.68 106.404C263.198 106.404 265.24 108.486 265.24 111.055Z"
        fill="#ffffff" />
    <path
        d="M9.88025 143.617C9.88025 146.186 7.83867 148.268 5.32025 148.268C2.80184 148.268 0.760254 146.186 0.760254 143.617C0.760254 141.048 2.80184 138.965 5.32025 138.965C7.83867 138.965 9.88025 141.048 9.88025 143.617Z"
        fill="#ffffff" />
    <path
        d="M41.8001 143.617C41.8001 146.186 39.7585 148.268 37.2401 148.268C34.7217 148.268 32.6801 146.186 32.6801 143.617C32.6801 141.048 34.7217 138.965 37.2401 138.965C39.7585 138.965 41.8001 141.048 41.8001 143.617Z"
        fill="#ffffff" />
    <path
        d="M73.7199 143.617C73.7199 146.186 71.6783 148.268 69.1599 148.268C66.6415 148.268 64.5999 146.186 64.5999 143.617C64.5999 141.048 66.6415 138.965 69.1599 138.965C71.6783 138.965 73.7199 141.048 73.7199 143.617Z"
        fill="#ffffff" />
    <path
        d="M105.64 143.617C105.64 146.186 103.599 148.268 101.08 148.268C98.5617 148.268 96.5201 146.186 96.5201 143.617C96.5201 141.048 98.5617 138.965 101.08 138.965C103.599 138.965 105.64 141.048 105.64 143.617Z"
        fill="#ffffff" />
    <path
        d="M137.56 143.617C137.56 146.186 135.518 148.268 133 148.268C130.482 148.268 128.44 146.186 128.44 143.617C128.44 141.048 130.482 138.965 133 138.965C135.518 138.965 137.56 141.048 137.56 143.617Z"
        fill="#ffffff" />
    <path
        d="M169.48 143.617C169.48 146.186 167.439 148.268 164.92 148.268C162.402 148.268 160.36 146.186 160.36 143.617C160.36 141.048 162.402 138.965 164.92 138.965C167.439 138.965 169.48 141.048 169.48 143.617Z"
        fill="#ffffff" />
    <path
        d="M201.4 143.617C201.4 146.186 199.359 148.268 196.84 148.268C194.322 148.268 192.28 146.186 192.28 143.617C192.28 141.048 194.322 138.965 196.84 138.965C199.359 138.965 201.4 141.048 201.4 143.617Z"
        fill="#ffffff" />
    <path
        d="M233.32 143.617C233.32 146.186 231.279 148.268 228.76 148.268C226.242 148.268 224.2 146.186 224.2 143.617C224.2 141.048 226.242 138.965 228.76 138.965C231.279 138.965 233.32 141.048 233.32 143.617Z"
        fill="#ffffff" />
    <path
        d="M265.24 143.617C265.24 146.186 263.198 148.268 260.68 148.268C258.162 148.268 256.12 146.186 256.12 143.617C256.12 141.048 258.162 138.965 260.68 138.965C263.198 138.965 265.24 141.048 265.24 143.617Z"
        fill="#ffffff" />
    <path
        d="M9.88025 176.178C9.88025 178.747 7.83867 180.83 5.32025 180.83C2.80184 180.83 0.760254 178.747 0.760254 176.178C0.760254 173.609 2.80184 171.527 5.32025 171.527C7.83867 171.527 9.88025 173.609 9.88025 176.178Z"
        fill="#ffffff" />
    <path
        d="M41.8001 176.178C41.8001 178.747 39.7585 180.83 37.2401 180.83C34.7217 180.83 32.6801 178.747 32.6801 176.178C32.6801 173.609 34.7217 171.527 37.2401 171.527C39.7585 171.527 41.8001 173.609 41.8001 176.178Z"
        fill="#ffffff" />
    <path
        d="M73.7199 176.178C73.7199 178.747 71.6783 180.83 69.1599 180.83C66.6415 180.83 64.5999 178.747 64.5999 176.178C64.5999 173.609 66.6415 171.527 69.1599 171.527C71.6783 171.527 73.7199 173.609 73.7199 176.178Z"
        fill="#ffffff" />
    <path
        d="M105.64 176.178C105.64 178.747 103.599 180.83 101.08 180.83C98.5617 180.83 96.5201 178.747 96.5201 176.178C96.5201 173.609 98.5617 171.527 101.08 171.527C103.599 171.527 105.64 173.609 105.64 176.178Z"
        fill="#ffffff" />
    <path
        d="M137.56 176.178C137.56 178.747 135.518 180.83 133 180.83C130.482 180.83 128.44 178.747 128.44 176.178C128.44 173.609 130.482 171.527 133 171.527C135.518 171.527 137.56 173.609 137.56 176.178Z"
        fill="#ffffff" />
    <path
        d="M169.48 176.178C169.48 178.747 167.439 180.83 164.92 180.83C162.402 180.83 160.36 178.747 160.36 176.178C160.36 173.609 162.402 171.527 164.92 171.527C167.439 171.527 169.48 173.609 169.48 176.178Z"
        fill="#ffffff" />
    <path
        d="M201.4 176.178C201.4 178.747 199.359 180.83 196.84 180.83C194.322 180.83 192.28 178.747 192.28 176.178C192.28 173.609 194.322 171.527 196.84 171.527C199.359 171.527 201.4 173.609 201.4 176.178Z"
        fill="#ffffff" />
    <path
        d="M233.32 176.178C233.32 178.747 231.279 180.83 228.76 180.83C226.242 180.83 224.2 178.747 224.2 176.178C224.2 173.609 226.242 171.527 228.76 171.527C231.279 171.527 233.32 173.609 233.32 176.178Z"
        fill="#ffffff" />
    <path
        d="M265.24 176.178C265.24 178.747 263.198 180.83 260.68 180.83C258.162 180.83 256.12 178.747 256.12 176.178C256.12 173.609 258.162 171.527 260.68 171.527C263.198 171.527 265.24 173.609 265.24 176.178Z"
        fill="#ffffff" />
    <path
        d="M9.88025 208.74C9.88025 211.309 7.83867 213.392 5.32025 213.392C2.80184 213.392 0.760254 211.309 0.760254 208.74C0.760254 206.171 2.80184 204.088 5.32025 204.088C7.83867 204.088 9.88025 206.171 9.88025 208.74Z"
        fill="#ffffff" />
    <path
        d="M41.8001 208.74C41.8001 211.309 39.7585 213.392 37.2401 213.392C34.7217 213.392 32.6801 211.309 32.6801 208.74C32.6801 206.171 34.7217 204.088 37.2401 204.088C39.7585 204.088 41.8001 206.171 41.8001 208.74Z"
        fill="#ffffff" />
    <path
        d="M73.7199 208.74C73.7199 211.309 71.6783 213.392 69.1599 213.392C66.6415 213.392 64.5999 211.309 64.5999 208.74C64.5999 206.171 66.6415 204.088 69.1599 204.088C71.6783 204.088 73.7199 206.171 73.7199 208.74Z"
        fill="#ffffff" />
    <path
        d="M105.64 208.74C105.64 211.309 103.599 213.392 101.08 213.392C98.5617 213.392 96.5201 211.309 96.5201 208.74C96.5201 206.171 98.5617 204.088 101.08 204.088C103.599 204.088 105.64 206.171 105.64 208.74Z"
        fill="#ffffff" />
    <path
        d="M137.56 208.74C137.56 211.309 135.518 213.392 133 213.392C130.482 213.392 128.44 211.309 128.44 208.74C128.44 206.171 130.482 204.088 133 204.088C135.518 204.088 137.56 206.171 137.56 208.74Z"
        fill="#ffffff" />
    <path
        d="M169.48 208.74C169.48 211.309 167.439 213.392 164.92 213.392C162.402 213.392 160.36 211.309 160.36 208.74C160.36 206.171 162.402 204.088 164.92 204.088C167.439 204.088 169.48 206.171 169.48 208.74Z"
        fill="#ffffff" />
    <path
        d="M201.4 208.74C201.4 211.309 199.359 213.392 196.84 213.392C194.322 213.392 192.28 211.309 192.28 208.74C192.28 206.171 194.322 204.088 196.84 204.088C199.359 204.088 201.4 206.171 201.4 208.74Z"
        fill="#ffffff" />
    <path
        d="M233.32 208.74C233.32 211.309 231.279 213.392 228.76 213.392C226.242 213.392 224.2 211.309 224.2 208.74C224.2 206.171 226.242 204.088 228.76 204.088C231.279 204.088 233.32 206.171 233.32 208.74Z"
        fill="#ffffff" />
    <path
        d="M265.24 208.74C265.24 211.309 263.198 213.392 260.68 213.392C258.162 213.392 256.12 211.309 256.12 208.74C256.12 206.171 258.162 204.088 260.68 204.088C263.198 204.088 265.24 206.171 265.24 208.74Z"
        fill="#ffffff" />
    <path
        d="M9.88025 241.302C9.88025 243.871 7.83867 245.953 5.32025 245.953C2.80184 245.953 0.760254 243.871 0.760254 241.302C0.760254 238.733 2.80184 236.65 5.32025 236.65C7.83867 236.65 9.88025 238.733 9.88025 241.302Z"
        fill="#ffffff" />
    <path
        d="M41.8001 241.302C41.8001 243.871 39.7585 245.953 37.2401 245.953C34.7217 245.953 32.6801 243.871 32.6801 241.302C32.6801 238.733 34.7217 236.65 37.2401 236.65C39.7585 236.65 41.8001 238.733 41.8001 241.302Z"
        fill="#ffffff" />
    <path
        d="M73.7199 241.302C73.7199 243.871 71.6783 245.953 69.1599 245.953C66.6415 245.953 64.5999 243.871 64.5999 241.302C64.5999 238.733 66.6415 236.65 69.1599 236.65C71.6783 236.65 73.7199 238.733 73.7199 241.302Z"
        fill="#ffffff" />
    <path
        d="M105.64 241.302C105.64 243.871 103.599 245.953 101.08 245.953C98.5617 245.953 96.5201 243.871 96.5201 241.302C96.5201 238.733 98.5617 236.65 101.08 236.65C103.599 236.65 105.64 238.733 105.64 241.302Z"
        fill="#ffffff" />
    <path
        d="M137.56 241.302C137.56 243.871 135.518 245.953 133 245.953C130.482 245.953 128.44 243.871 128.44 241.302C128.44 238.733 130.482 236.65 133 236.65C135.518 236.65 137.56 238.733 137.56 241.302Z"
        fill="#ffffff" />
    <path
        d="M169.48 241.302C169.48 243.871 167.439 245.953 164.92 245.953C162.402 245.953 160.36 243.871 160.36 241.302C160.36 238.733 162.402 236.65 164.92 236.65C167.439 236.65 169.48 238.733 169.48 241.302Z"
        fill="#ffffff" />
    <path
        d="M201.4 241.302C201.4 243.871 199.359 245.953 196.84 245.953C194.322 245.953 192.28 243.871 192.28 241.302C192.28 238.733 194.322 236.65 196.84 236.65C199.359 236.65 201.4 238.733 201.4 241.302Z"
        fill="#ffffff" />
    <path
        d="M233.32 241.302C233.32 243.871 231.279 245.953 228.76 245.953C226.242 245.953 224.2 243.871 224.2 241.302C224.2 238.733 226.242 236.65 228.76 236.65C231.279 236.65 233.32 238.733 233.32 241.302Z"
        fill="#ffffff" />
    <path
        d="M265.24 241.302C265.24 243.871 263.198 245.953 260.68 245.953C258.162 245.953 256.12 243.871 256.12 241.302C256.12 238.733 258.162 236.65 260.68 236.65C263.198 236.65 265.24 238.733 265.24 241.302Z"
        fill="#ffffff" />
</svg>